<mxfile host="app.diagrams.net" agent="Mozilla/5.0 (Windows NT 10.0; Win64; x64) AppleWebKit/537.36 (KHTML, like Gecko) Chrome/128.0.0.0 Safari/537.36" version="24.7.15">
  <diagram id="hCpJs18Ey9ujRDbzKAEA" name="Page-1">
    <mxGraphModel dx="2120" dy="2260" grid="1" gridSize="10" guides="1" tooltips="1" connect="1" arrows="1" fold="1" page="1" pageScale="1" pageWidth="850" pageHeight="1100" math="0" shadow="0">
      <root>
        <mxCell id="0" />
        <mxCell id="1" parent="0" />
        <mxCell id="QHExwjSjgpuXHKgZnFAG-8" value="AgriSynapse" style="swimlane;fontStyle=0;childLayout=stackLayout;horizontal=1;startSize=26;fillColor=none;horizontalStack=0;resizeParent=1;resizeParentMax=0;resizeLast=0;collapsible=1;marginBottom=0;whiteSpace=wrap;html=1;fontSize=18;" vertex="1" parent="1">
          <mxGeometry x="440" y="240" width="160" height="104" as="geometry" />
        </mxCell>
        <mxCell id="QHExwjSjgpuXHKgZnFAG-10" value="+ version" style="text;strokeColor=none;fillColor=none;align=left;verticalAlign=top;spacingLeft=4;spacingRight=4;overflow=hidden;rotatable=0;points=[[0,0.5],[1,0.5]];portConstraint=eastwest;whiteSpace=wrap;html=1;fontSize=18;" vertex="1" parent="QHExwjSjgpuXHKgZnFAG-8">
          <mxGeometry y="26" width="160" height="26" as="geometry" />
        </mxCell>
        <mxCell id="QHExwjSjgpuXHKgZnFAG-11" value="+ status" style="text;strokeColor=none;fillColor=none;align=left;verticalAlign=top;spacingLeft=4;spacingRight=4;overflow=hidden;rotatable=0;points=[[0,0.5],[1,0.5]];portConstraint=eastwest;whiteSpace=wrap;html=1;fontSize=18;" vertex="1" parent="QHExwjSjgpuXHKgZnFAG-8">
          <mxGeometry y="52" width="160" height="26" as="geometry" />
        </mxCell>
        <mxCell id="QHExwjSjgpuXHKgZnFAG-12" value="+ configuration" style="text;strokeColor=none;fillColor=none;align=left;verticalAlign=top;spacingLeft=4;spacingRight=4;overflow=hidden;rotatable=0;points=[[0,0.5],[1,0.5]];portConstraint=eastwest;whiteSpace=wrap;html=1;fontSize=18;" vertex="1" parent="QHExwjSjgpuXHKgZnFAG-8">
          <mxGeometry y="78" width="160" height="26" as="geometry" />
        </mxCell>
        <mxCell id="QHExwjSjgpuXHKgZnFAG-13" value="Farm" style="swimlane;fontStyle=0;childLayout=stackLayout;horizontal=1;startSize=26;fillColor=none;horizontalStack=0;resizeParent=1;resizeParentMax=0;resizeLast=0;collapsible=1;marginBottom=0;whiteSpace=wrap;html=1;fontSize=18;" vertex="1" parent="1">
          <mxGeometry x="780" y="240" width="160" height="130" as="geometry" />
        </mxCell>
        <mxCell id="QHExwjSjgpuXHKgZnFAG-14" value="+ location" style="text;strokeColor=none;fillColor=none;align=left;verticalAlign=top;spacingLeft=4;spacingRight=4;overflow=hidden;rotatable=0;points=[[0,0.5],[1,0.5]];portConstraint=eastwest;whiteSpace=wrap;html=1;fontSize=18;" vertex="1" parent="QHExwjSjgpuXHKgZnFAG-13">
          <mxGeometry y="26" width="160" height="26" as="geometry" />
        </mxCell>
        <mxCell id="QHExwjSjgpuXHKgZnFAG-15" value="+ size" style="text;strokeColor=none;fillColor=none;align=left;verticalAlign=top;spacingLeft=4;spacingRight=4;overflow=hidden;rotatable=0;points=[[0,0.5],[1,0.5]];portConstraint=eastwest;whiteSpace=wrap;html=1;fontSize=18;" vertex="1" parent="QHExwjSjgpuXHKgZnFAG-13">
          <mxGeometry y="52" width="160" height="26" as="geometry" />
        </mxCell>
        <mxCell id="QHExwjSjgpuXHKgZnFAG-16" value="+ crop type" style="text;strokeColor=none;fillColor=none;align=left;verticalAlign=top;spacingLeft=4;spacingRight=4;overflow=hidden;rotatable=0;points=[[0,0.5],[1,0.5]];portConstraint=eastwest;whiteSpace=wrap;html=1;fontSize=18;" vertex="1" parent="QHExwjSjgpuXHKgZnFAG-13">
          <mxGeometry y="78" width="160" height="26" as="geometry" />
        </mxCell>
        <mxCell id="QHExwjSjgpuXHKgZnFAG-17" value="+ livestock type" style="text;strokeColor=none;fillColor=none;align=left;verticalAlign=top;spacingLeft=4;spacingRight=4;overflow=hidden;rotatable=0;points=[[0,0.5],[1,0.5]];portConstraint=eastwest;whiteSpace=wrap;html=1;fontSize=18;" vertex="1" parent="QHExwjSjgpuXHKgZnFAG-13">
          <mxGeometry y="104" width="160" height="26" as="geometry" />
        </mxCell>
        <mxCell id="QHExwjSjgpuXHKgZnFAG-30" value="Sensor" style="swimlane;fontStyle=0;childLayout=stackLayout;horizontal=1;startSize=26;fillColor=none;horizontalStack=0;resizeParent=1;resizeParentMax=0;resizeLast=0;collapsible=1;marginBottom=0;whiteSpace=wrap;html=1;fontSize=18;" vertex="1" parent="1">
          <mxGeometry x="1130" y="240" width="160" height="104" as="geometry" />
        </mxCell>
        <mxCell id="QHExwjSjgpuXHKgZnFAG-31" value="+ type" style="text;strokeColor=none;fillColor=none;align=left;verticalAlign=top;spacingLeft=4;spacingRight=4;overflow=hidden;rotatable=0;points=[[0,0.5],[1,0.5]];portConstraint=eastwest;whiteSpace=wrap;html=1;fontSize=18;" vertex="1" parent="QHExwjSjgpuXHKgZnFAG-30">
          <mxGeometry y="26" width="160" height="26" as="geometry" />
        </mxCell>
        <mxCell id="QHExwjSjgpuXHKgZnFAG-32" value="+ status" style="text;strokeColor=none;fillColor=none;align=left;verticalAlign=top;spacingLeft=4;spacingRight=4;overflow=hidden;rotatable=0;points=[[0,0.5],[1,0.5]];portConstraint=eastwest;whiteSpace=wrap;html=1;fontSize=18;" vertex="1" parent="QHExwjSjgpuXHKgZnFAG-30">
          <mxGeometry y="52" width="160" height="26" as="geometry" />
        </mxCell>
        <mxCell id="QHExwjSjgpuXHKgZnFAG-33" value="+ data" style="text;strokeColor=none;fillColor=none;align=left;verticalAlign=top;spacingLeft=4;spacingRight=4;overflow=hidden;rotatable=0;points=[[0,0.5],[1,0.5]];portConstraint=eastwest;whiteSpace=wrap;html=1;fontSize=18;" vertex="1" parent="QHExwjSjgpuXHKgZnFAG-30">
          <mxGeometry y="78" width="160" height="26" as="geometry" />
        </mxCell>
        <mxCell id="QHExwjSjgpuXHKgZnFAG-35" value="Autonomous vehicle" style="swimlane;fontStyle=0;childLayout=stackLayout;horizontal=1;startSize=26;fillColor=none;horizontalStack=0;resizeParent=1;resizeParentMax=0;resizeLast=0;collapsible=1;marginBottom=0;whiteSpace=wrap;html=1;fontSize=18;" vertex="1" parent="1">
          <mxGeometry x="570" y="490" width="190" height="104" as="geometry" />
        </mxCell>
        <mxCell id="QHExwjSjgpuXHKgZnFAG-36" value="+ type" style="text;strokeColor=none;fillColor=none;align=left;verticalAlign=top;spacingLeft=4;spacingRight=4;overflow=hidden;rotatable=0;points=[[0,0.5],[1,0.5]];portConstraint=eastwest;whiteSpace=wrap;html=1;fontSize=18;" vertex="1" parent="QHExwjSjgpuXHKgZnFAG-35">
          <mxGeometry y="26" width="190" height="26" as="geometry" />
        </mxCell>
        <mxCell id="QHExwjSjgpuXHKgZnFAG-37" value="+ status" style="text;strokeColor=none;fillColor=none;align=left;verticalAlign=top;spacingLeft=4;spacingRight=4;overflow=hidden;rotatable=0;points=[[0,0.5],[1,0.5]];portConstraint=eastwest;whiteSpace=wrap;html=1;fontSize=18;" vertex="1" parent="QHExwjSjgpuXHKgZnFAG-35">
          <mxGeometry y="52" width="190" height="26" as="geometry" />
        </mxCell>
        <mxCell id="QHExwjSjgpuXHKgZnFAG-38" value="+ tasks" style="text;strokeColor=none;fillColor=none;align=left;verticalAlign=top;spacingLeft=4;spacingRight=4;overflow=hidden;rotatable=0;points=[[0,0.5],[1,0.5]];portConstraint=eastwest;whiteSpace=wrap;html=1;fontSize=18;" vertex="1" parent="QHExwjSjgpuXHKgZnFAG-35">
          <mxGeometry y="78" width="190" height="26" as="geometry" />
        </mxCell>
        <mxCell id="QHExwjSjgpuXHKgZnFAG-39" value="Control unit" style="swimlane;fontStyle=0;childLayout=stackLayout;horizontal=1;startSize=26;fillColor=none;horizontalStack=0;resizeParent=1;resizeParentMax=0;resizeLast=0;collapsible=1;marginBottom=0;whiteSpace=wrap;html=1;fontSize=18;" vertex="1" parent="1">
          <mxGeometry x="120" y="240" width="160" height="104" as="geometry" />
        </mxCell>
        <mxCell id="QHExwjSjgpuXHKgZnFAG-40" value="+ system status" style="text;strokeColor=none;fillColor=none;align=left;verticalAlign=top;spacingLeft=4;spacingRight=4;overflow=hidden;rotatable=0;points=[[0,0.5],[1,0.5]];portConstraint=eastwest;whiteSpace=wrap;html=1;fontSize=18;" vertex="1" parent="QHExwjSjgpuXHKgZnFAG-39">
          <mxGeometry y="26" width="160" height="26" as="geometry" />
        </mxCell>
        <mxCell id="QHExwjSjgpuXHKgZnFAG-41" value="+ current task" style="text;strokeColor=none;fillColor=none;align=left;verticalAlign=top;spacingLeft=4;spacingRight=4;overflow=hidden;rotatable=0;points=[[0,0.5],[1,0.5]];portConstraint=eastwest;whiteSpace=wrap;html=1;fontSize=18;" vertex="1" parent="QHExwjSjgpuXHKgZnFAG-39">
          <mxGeometry y="52" width="160" height="26" as="geometry" />
        </mxCell>
        <mxCell id="QHExwjSjgpuXHKgZnFAG-42" value="+ schedule" style="text;strokeColor=none;fillColor=none;align=left;verticalAlign=top;spacingLeft=4;spacingRight=4;overflow=hidden;rotatable=0;points=[[0,0.5],[1,0.5]];portConstraint=eastwest;whiteSpace=wrap;html=1;fontSize=18;" vertex="1" parent="QHExwjSjgpuXHKgZnFAG-39">
          <mxGeometry y="78" width="160" height="26" as="geometry" />
        </mxCell>
        <mxCell id="QHExwjSjgpuXHKgZnFAG-43" value="Data analytics platform" style="swimlane;fontStyle=0;childLayout=stackLayout;horizontal=1;startSize=26;fillColor=none;horizontalStack=0;resizeParent=1;resizeParentMax=0;resizeLast=0;collapsible=1;marginBottom=0;whiteSpace=wrap;html=1;fontSize=18;" vertex="1" parent="1">
          <mxGeometry x="480" y="10" width="240" height="104" as="geometry" />
        </mxCell>
        <mxCell id="QHExwjSjgpuXHKgZnFAG-44" value="+ data history" style="text;strokeColor=none;fillColor=none;align=left;verticalAlign=top;spacingLeft=4;spacingRight=4;overflow=hidden;rotatable=0;points=[[0,0.5],[1,0.5]];portConstraint=eastwest;whiteSpace=wrap;html=1;fontSize=18;" vertex="1" parent="QHExwjSjgpuXHKgZnFAG-43">
          <mxGeometry y="26" width="240" height="26" as="geometry" />
        </mxCell>
        <mxCell id="QHExwjSjgpuXHKgZnFAG-45" value="+ prediciton models" style="text;strokeColor=none;fillColor=none;align=left;verticalAlign=top;spacingLeft=4;spacingRight=4;overflow=hidden;rotatable=0;points=[[0,0.5],[1,0.5]];portConstraint=eastwest;whiteSpace=wrap;html=1;fontSize=18;" vertex="1" parent="QHExwjSjgpuXHKgZnFAG-43">
          <mxGeometry y="52" width="240" height="26" as="geometry" />
        </mxCell>
        <mxCell id="QHExwjSjgpuXHKgZnFAG-46" value="+ analysis report" style="text;strokeColor=none;fillColor=none;align=left;verticalAlign=top;spacingLeft=4;spacingRight=4;overflow=hidden;rotatable=0;points=[[0,0.5],[1,0.5]];portConstraint=eastwest;whiteSpace=wrap;html=1;fontSize=18;" vertex="1" parent="QHExwjSjgpuXHKgZnFAG-43">
          <mxGeometry y="78" width="240" height="26" as="geometry" />
        </mxCell>
        <mxCell id="QHExwjSjgpuXHKgZnFAG-47" value="External service" style="swimlane;fontStyle=0;childLayout=stackLayout;horizontal=1;startSize=26;fillColor=none;horizontalStack=0;resizeParent=1;resizeParentMax=0;resizeLast=0;collapsible=1;marginBottom=0;whiteSpace=wrap;html=1;fontSize=18;" vertex="1" parent="1">
          <mxGeometry x="120" y="20" width="160" height="104" as="geometry" />
        </mxCell>
        <mxCell id="QHExwjSjgpuXHKgZnFAG-48" value="+ service type" style="text;strokeColor=none;fillColor=none;align=left;verticalAlign=top;spacingLeft=4;spacingRight=4;overflow=hidden;rotatable=0;points=[[0,0.5],[1,0.5]];portConstraint=eastwest;whiteSpace=wrap;html=1;fontSize=18;" vertex="1" parent="QHExwjSjgpuXHKgZnFAG-47">
          <mxGeometry y="26" width="160" height="26" as="geometry" />
        </mxCell>
        <mxCell id="QHExwjSjgpuXHKgZnFAG-49" value="+ connection endpoint" style="text;strokeColor=none;fillColor=none;align=left;verticalAlign=top;spacingLeft=4;spacingRight=4;overflow=hidden;rotatable=0;points=[[0,0.5],[1,0.5]];portConstraint=eastwest;whiteSpace=wrap;html=1;fontSize=18;" vertex="1" parent="QHExwjSjgpuXHKgZnFAG-47">
          <mxGeometry y="52" width="160" height="26" as="geometry" />
        </mxCell>
        <mxCell id="QHExwjSjgpuXHKgZnFAG-50" value="+ data feed" style="text;strokeColor=none;fillColor=none;align=left;verticalAlign=top;spacingLeft=4;spacingRight=4;overflow=hidden;rotatable=0;points=[[0,0.5],[1,0.5]];portConstraint=eastwest;whiteSpace=wrap;html=1;fontSize=18;" vertex="1" parent="QHExwjSjgpuXHKgZnFAG-47">
          <mxGeometry y="78" width="160" height="26" as="geometry" />
        </mxCell>
        <mxCell id="QHExwjSjgpuXHKgZnFAG-51" value="Manages" style="endArrow=open;html=1;endSize=12;startArrow=diamondThin;startSize=14;startFill=0;edgeStyle=orthogonalEdgeStyle;rounded=0;entryX=1;entryY=0.5;entryDx=0;entryDy=0;exitX=0;exitY=0.5;exitDx=0;exitDy=0;fontSize=18;" edge="1" parent="1" source="QHExwjSjgpuXHKgZnFAG-11" target="QHExwjSjgpuXHKgZnFAG-41">
          <mxGeometry relative="1" as="geometry">
            <mxPoint x="450" y="305" as="sourcePoint" />
            <mxPoint x="240" y="305" as="targetPoint" />
            <mxPoint as="offset" />
          </mxGeometry>
        </mxCell>
        <mxCell id="QHExwjSjgpuXHKgZnFAG-52" value="1" style="edgeLabel;resizable=0;html=1;align=left;verticalAlign=top;fontSize=18;" connectable="0" vertex="1" parent="QHExwjSjgpuXHKgZnFAG-51">
          <mxGeometry x="-1" relative="1" as="geometry">
            <mxPoint x="-30" y="-35" as="offset" />
          </mxGeometry>
        </mxCell>
        <mxCell id="QHExwjSjgpuXHKgZnFAG-53" value="1" style="edgeLabel;resizable=0;html=1;align=right;verticalAlign=top;fontSize=18;" connectable="0" vertex="1" parent="QHExwjSjgpuXHKgZnFAG-51">
          <mxGeometry x="1" relative="1" as="geometry">
            <mxPoint x="30" y="-35" as="offset" />
          </mxGeometry>
        </mxCell>
        <mxCell id="QHExwjSjgpuXHKgZnFAG-57" value="interfaces" style="endArrow=open;html=1;endSize=12;startArrow=diamondThin;startSize=14;startFill=0;edgeStyle=orthogonalEdgeStyle;rounded=0;exitX=0.5;exitY=0;exitDx=0;exitDy=0;entryX=0.5;entryY=1;entryDx=0;entryDy=0;fontSize=18;" edge="1" parent="1" source="QHExwjSjgpuXHKgZnFAG-8" target="QHExwjSjgpuXHKgZnFAG-43">
          <mxGeometry relative="1" as="geometry">
            <mxPoint x="550" y="360" as="sourcePoint" />
            <mxPoint x="560" y="130" as="targetPoint" />
          </mxGeometry>
        </mxCell>
        <mxCell id="QHExwjSjgpuXHKgZnFAG-58" value="1" style="edgeLabel;resizable=0;html=1;align=left;verticalAlign=top;fontSize=18;" connectable="0" vertex="1" parent="QHExwjSjgpuXHKgZnFAG-57">
          <mxGeometry x="-1" relative="1" as="geometry">
            <mxPoint y="-40" as="offset" />
          </mxGeometry>
        </mxCell>
        <mxCell id="QHExwjSjgpuXHKgZnFAG-59" value="1" style="edgeLabel;resizable=0;html=1;align=right;verticalAlign=top;fontSize=18;" connectable="0" vertex="1" parent="QHExwjSjgpuXHKgZnFAG-57">
          <mxGeometry x="1" relative="1" as="geometry">
            <mxPoint x="20" y="6" as="offset" />
          </mxGeometry>
        </mxCell>
        <mxCell id="QHExwjSjgpuXHKgZnFAG-60" value="Manages" style="endArrow=open;html=1;endSize=12;startArrow=diamondThin;startSize=14;startFill=0;edgeStyle=orthogonalEdgeStyle;rounded=0;exitX=1;exitY=0.5;exitDx=0;exitDy=0;entryX=0;entryY=0.5;entryDx=0;entryDy=0;fontSize=18;" edge="1" parent="1" source="QHExwjSjgpuXHKgZnFAG-11" target="QHExwjSjgpuXHKgZnFAG-15">
          <mxGeometry relative="1" as="geometry">
            <mxPoint x="480" y="315" as="sourcePoint" />
            <mxPoint x="650" y="360" as="targetPoint" />
          </mxGeometry>
        </mxCell>
        <mxCell id="QHExwjSjgpuXHKgZnFAG-61" value="1" style="edgeLabel;resizable=0;html=1;align=left;verticalAlign=top;fontSize=18;" connectable="0" vertex="1" parent="QHExwjSjgpuXHKgZnFAG-60">
          <mxGeometry x="-1" relative="1" as="geometry">
            <mxPoint x="10" y="-35" as="offset" />
          </mxGeometry>
        </mxCell>
        <mxCell id="QHExwjSjgpuXHKgZnFAG-62" value="1..n" style="edgeLabel;resizable=0;html=1;align=right;verticalAlign=top;fontSize=18;" connectable="0" vertex="1" parent="QHExwjSjgpuXHKgZnFAG-60">
          <mxGeometry x="1" relative="1" as="geometry">
            <mxPoint x="-20" y="-35" as="offset" />
          </mxGeometry>
        </mxCell>
        <mxCell id="QHExwjSjgpuXHKgZnFAG-66" value="has" style="endArrow=open;html=1;endSize=12;startArrow=diamondThin;startSize=14;startFill=0;edgeStyle=orthogonalEdgeStyle;rounded=0;exitX=0.738;exitY=1.025;exitDx=0;exitDy=0;exitPerimeter=0;entryX=0.5;entryY=0;entryDx=0;entryDy=0;fontSize=18;" edge="1" parent="1" source="QHExwjSjgpuXHKgZnFAG-17" target="QHExwjSjgpuXHKgZnFAG-95">
          <mxGeometry relative="1" as="geometry">
            <mxPoint x="869.88" y="250" as="sourcePoint" />
            <mxPoint x="1043.68" y="491.55999999999995" as="targetPoint" />
          </mxGeometry>
        </mxCell>
        <mxCell id="QHExwjSjgpuXHKgZnFAG-67" value="1" style="edgeLabel;resizable=0;html=1;align=left;verticalAlign=top;fontSize=18;" connectable="0" vertex="1" parent="QHExwjSjgpuXHKgZnFAG-66">
          <mxGeometry x="-1" relative="1" as="geometry">
            <mxPoint x="2" y="9" as="offset" />
          </mxGeometry>
        </mxCell>
        <mxCell id="QHExwjSjgpuXHKgZnFAG-68" value="0..n" style="edgeLabel;resizable=0;html=1;align=right;verticalAlign=top;fontSize=18;" connectable="0" vertex="1" parent="QHExwjSjgpuXHKgZnFAG-66">
          <mxGeometry x="1" relative="1" as="geometry">
            <mxPoint x="40" y="-40" as="offset" />
          </mxGeometry>
        </mxCell>
        <mxCell id="QHExwjSjgpuXHKgZnFAG-70" value="employs" style="endArrow=open;html=1;endSize=12;startArrow=diamondThin;startSize=14;startFill=0;edgeStyle=orthogonalEdgeStyle;rounded=0;exitX=1;exitY=0.5;exitDx=0;exitDy=0;entryX=0;entryY=0.5;entryDx=0;entryDy=0;fontSize=18;" edge="1" parent="1" source="QHExwjSjgpuXHKgZnFAG-15" target="QHExwjSjgpuXHKgZnFAG-32">
          <mxGeometry relative="1" as="geometry">
            <mxPoint x="869.88" y="250" as="sourcePoint" />
            <mxPoint x="869.88" y="126" as="targetPoint" />
          </mxGeometry>
        </mxCell>
        <mxCell id="QHExwjSjgpuXHKgZnFAG-71" value="1" style="edgeLabel;resizable=0;html=1;align=left;verticalAlign=top;fontSize=18;" connectable="0" vertex="1" parent="QHExwjSjgpuXHKgZnFAG-70">
          <mxGeometry x="-1" relative="1" as="geometry">
            <mxPoint x="10" y="-35" as="offset" />
          </mxGeometry>
        </mxCell>
        <mxCell id="QHExwjSjgpuXHKgZnFAG-72" value="1..n" style="edgeLabel;resizable=0;html=1;align=right;verticalAlign=top;fontSize=18;" connectable="0" vertex="1" parent="QHExwjSjgpuXHKgZnFAG-70">
          <mxGeometry x="1" relative="1" as="geometry">
            <mxPoint x="-15" y="-35" as="offset" />
          </mxGeometry>
        </mxCell>
        <mxCell id="QHExwjSjgpuXHKgZnFAG-73" value="operates" style="endArrow=open;html=1;endSize=12;startArrow=diamondThin;startSize=14;startFill=0;edgeStyle=orthogonalEdgeStyle;rounded=0;entryX=0.506;entryY=-0.029;entryDx=0;entryDy=0;entryPerimeter=0;fontSize=18;" edge="1" parent="1" target="QHExwjSjgpuXHKgZnFAG-35">
          <mxGeometry relative="1" as="geometry">
            <mxPoint x="821" y="371" as="sourcePoint" />
            <mxPoint x="1159" y="532" as="targetPoint" />
            <Array as="points">
              <mxPoint x="821" y="440" />
              <mxPoint x="666" y="440" />
            </Array>
          </mxGeometry>
        </mxCell>
        <mxCell id="QHExwjSjgpuXHKgZnFAG-74" value="1" style="edgeLabel;resizable=0;html=1;align=left;verticalAlign=top;fontSize=18;" connectable="0" vertex="1" parent="QHExwjSjgpuXHKgZnFAG-73">
          <mxGeometry x="-1" relative="1" as="geometry">
            <mxPoint x="2" y="9" as="offset" />
          </mxGeometry>
        </mxCell>
        <mxCell id="QHExwjSjgpuXHKgZnFAG-75" value="0..n" style="edgeLabel;resizable=0;html=1;align=right;verticalAlign=top;fontSize=18;" connectable="0" vertex="1" parent="QHExwjSjgpuXHKgZnFAG-73">
          <mxGeometry x="1" relative="1" as="geometry">
            <mxPoint x="-11" y="-34" as="offset" />
          </mxGeometry>
        </mxCell>
        <mxCell id="QHExwjSjgpuXHKgZnFAG-77" value="contains" style="endArrow=open;html=1;endSize=12;startArrow=diamondThin;startSize=14;startFill=0;edgeStyle=orthogonalEdgeStyle;rounded=0;entryX=0.5;entryY=0;entryDx=0;entryDy=0;exitX=1;exitY=0.5;exitDx=0;exitDy=0;fontSize=18;" edge="1" parent="1" source="QHExwjSjgpuXHKgZnFAG-92" target="QHExwjSjgpuXHKgZnFAG-30">
          <mxGeometry relative="1" as="geometry">
            <mxPoint x="960" y="90" as="sourcePoint" />
            <mxPoint x="1090" y="205" as="targetPoint" />
          </mxGeometry>
        </mxCell>
        <mxCell id="QHExwjSjgpuXHKgZnFAG-78" value="1" style="edgeLabel;resizable=0;html=1;align=left;verticalAlign=top;fontSize=18;" connectable="0" vertex="1" parent="QHExwjSjgpuXHKgZnFAG-77">
          <mxGeometry x="-1" relative="1" as="geometry">
            <mxPoint x="20" y="-5" as="offset" />
          </mxGeometry>
        </mxCell>
        <mxCell id="QHExwjSjgpuXHKgZnFAG-79" value="0..n" style="edgeLabel;resizable=0;html=1;align=right;verticalAlign=top;fontSize=18;" connectable="0" vertex="1" parent="QHExwjSjgpuXHKgZnFAG-77">
          <mxGeometry x="1" relative="1" as="geometry">
            <mxPoint x="-15" y="-40" as="offset" />
          </mxGeometry>
        </mxCell>
        <mxCell id="QHExwjSjgpuXHKgZnFAG-81" value="contains" style="endArrow=open;html=1;endSize=12;startArrow=diamondThin;startSize=14;startFill=0;edgeStyle=orthogonalEdgeStyle;rounded=0;entryX=0.5;entryY=1;entryDx=0;entryDy=0;exitX=1;exitY=0.5;exitDx=0;exitDy=0;fontSize=18;" edge="1" parent="1" source="QHExwjSjgpuXHKgZnFAG-98" target="QHExwjSjgpuXHKgZnFAG-30">
          <mxGeometry relative="1" as="geometry">
            <mxPoint x="1200" y="550" as="sourcePoint" />
            <mxPoint x="1150" y="360" as="targetPoint" />
          </mxGeometry>
        </mxCell>
        <mxCell id="QHExwjSjgpuXHKgZnFAG-82" value="1" style="edgeLabel;resizable=0;html=1;align=left;verticalAlign=top;fontSize=18;" connectable="0" vertex="1" parent="QHExwjSjgpuXHKgZnFAG-81">
          <mxGeometry x="-1" relative="1" as="geometry">
            <mxPoint x="20" y="-15" as="offset" />
          </mxGeometry>
        </mxCell>
        <mxCell id="QHExwjSjgpuXHKgZnFAG-83" value="0..n" style="edgeLabel;resizable=0;html=1;align=right;verticalAlign=top;fontSize=18;" connectable="0" vertex="1" parent="QHExwjSjgpuXHKgZnFAG-81">
          <mxGeometry x="1" relative="1" as="geometry">
            <mxPoint x="30" y="6" as="offset" />
          </mxGeometry>
        </mxCell>
        <mxCell id="QHExwjSjgpuXHKgZnFAG-84" value="send data" style="endArrow=open;html=1;endSize=12;startArrow=diamondThin;startSize=14;startFill=0;edgeStyle=orthogonalEdgeStyle;rounded=0;exitX=1;exitY=0.308;exitDx=0;exitDy=0;exitPerimeter=0;entryX=0.5;entryY=0;entryDx=0;entryDy=0;fontSize=18;" edge="1" parent="1" source="QHExwjSjgpuXHKgZnFAG-32" target="QHExwjSjgpuXHKgZnFAG-43">
          <mxGeometry relative="1" as="geometry">
            <mxPoint x="1250" y="300" as="sourcePoint" />
            <mxPoint x="500" y="650" as="targetPoint" />
            <Array as="points">
              <mxPoint x="1320" y="300" />
              <mxPoint x="1320" y="-40" />
              <mxPoint x="600" y="-40" />
            </Array>
          </mxGeometry>
        </mxCell>
        <mxCell id="QHExwjSjgpuXHKgZnFAG-85" value="0..n" style="edgeLabel;resizable=0;html=1;align=left;verticalAlign=top;fontSize=18;" connectable="0" vertex="1" parent="QHExwjSjgpuXHKgZnFAG-84">
          <mxGeometry x="-1" relative="1" as="geometry">
            <mxPoint x="10" as="offset" />
          </mxGeometry>
        </mxCell>
        <mxCell id="QHExwjSjgpuXHKgZnFAG-86" value="1" style="edgeLabel;resizable=0;html=1;align=right;verticalAlign=top;fontSize=18;" connectable="0" vertex="1" parent="QHExwjSjgpuXHKgZnFAG-84">
          <mxGeometry x="1" relative="1" as="geometry">
            <mxPoint x="20" y="-30" as="offset" />
          </mxGeometry>
        </mxCell>
        <mxCell id="QHExwjSjgpuXHKgZnFAG-90" value="Livestock" style="swimlane;fontStyle=0;childLayout=stackLayout;horizontal=1;startSize=26;fillColor=none;horizontalStack=0;resizeParent=1;resizeParentMax=0;resizeLast=0;collapsible=1;marginBottom=0;whiteSpace=wrap;html=1;fontSize=18;" vertex="1" parent="1">
          <mxGeometry x="780" y="20" width="160" height="130" as="geometry" />
        </mxCell>
        <mxCell id="QHExwjSjgpuXHKgZnFAG-91" value="+ species" style="text;strokeColor=none;fillColor=none;align=left;verticalAlign=top;spacingLeft=4;spacingRight=4;overflow=hidden;rotatable=0;points=[[0,0.5],[1,0.5]];portConstraint=eastwest;whiteSpace=wrap;html=1;fontSize=18;" vertex="1" parent="QHExwjSjgpuXHKgZnFAG-90">
          <mxGeometry y="26" width="160" height="26" as="geometry" />
        </mxCell>
        <mxCell id="QHExwjSjgpuXHKgZnFAG-92" value="+ health status" style="text;strokeColor=none;fillColor=none;align=left;verticalAlign=top;spacingLeft=4;spacingRight=4;overflow=hidden;rotatable=0;points=[[0,0.5],[1,0.5]];portConstraint=eastwest;whiteSpace=wrap;html=1;fontSize=18;" vertex="1" parent="QHExwjSjgpuXHKgZnFAG-90">
          <mxGeometry y="52" width="160" height="26" as="geometry" />
        </mxCell>
        <mxCell id="QHExwjSjgpuXHKgZnFAG-93" value="+ feeding schedule" style="text;strokeColor=none;fillColor=none;align=left;verticalAlign=top;spacingLeft=4;spacingRight=4;overflow=hidden;rotatable=0;points=[[0,0.5],[1,0.5]];portConstraint=eastwest;whiteSpace=wrap;html=1;fontSize=18;" vertex="1" parent="QHExwjSjgpuXHKgZnFAG-90">
          <mxGeometry y="78" width="160" height="26" as="geometry" />
        </mxCell>
        <mxCell id="QHExwjSjgpuXHKgZnFAG-94" value="+ location" style="text;strokeColor=none;fillColor=none;align=left;verticalAlign=top;spacingLeft=4;spacingRight=4;overflow=hidden;rotatable=0;points=[[0,0.5],[1,0.5]];portConstraint=eastwest;whiteSpace=wrap;html=1;fontSize=18;" vertex="1" parent="QHExwjSjgpuXHKgZnFAG-90">
          <mxGeometry y="104" width="160" height="26" as="geometry" />
        </mxCell>
        <mxCell id="QHExwjSjgpuXHKgZnFAG-95" value="Field" style="swimlane;fontStyle=0;childLayout=stackLayout;horizontal=1;startSize=26;fillColor=none;horizontalStack=0;resizeParent=1;resizeParentMax=0;resizeLast=0;collapsible=1;marginBottom=0;whiteSpace=wrap;html=1;fontSize=18;" vertex="1" parent="1">
          <mxGeometry x="960" y="490" width="160" height="156" as="geometry" />
        </mxCell>
        <mxCell id="QHExwjSjgpuXHKgZnFAG-96" value="+ crop type" style="text;strokeColor=none;fillColor=none;align=left;verticalAlign=top;spacingLeft=4;spacingRight=4;overflow=hidden;rotatable=0;points=[[0,0.5],[1,0.5]];portConstraint=eastwest;whiteSpace=wrap;html=1;fontSize=18;" vertex="1" parent="QHExwjSjgpuXHKgZnFAG-95">
          <mxGeometry y="26" width="160" height="26" as="geometry" />
        </mxCell>
        <mxCell id="QHExwjSjgpuXHKgZnFAG-97" value="+ size" style="text;strokeColor=none;fillColor=none;align=left;verticalAlign=top;spacingLeft=4;spacingRight=4;overflow=hidden;rotatable=0;points=[[0,0.5],[1,0.5]];portConstraint=eastwest;whiteSpace=wrap;html=1;fontSize=18;" vertex="1" parent="QHExwjSjgpuXHKgZnFAG-95">
          <mxGeometry y="52" width="160" height="26" as="geometry" />
        </mxCell>
        <mxCell id="QHExwjSjgpuXHKgZnFAG-98" value="+ soil health" style="text;strokeColor=none;fillColor=none;align=left;verticalAlign=top;spacingLeft=4;spacingRight=4;overflow=hidden;rotatable=0;points=[[0,0.5],[1,0.5]];portConstraint=eastwest;whiteSpace=wrap;html=1;fontSize=18;" vertex="1" parent="QHExwjSjgpuXHKgZnFAG-95">
          <mxGeometry y="78" width="160" height="26" as="geometry" />
        </mxCell>
        <mxCell id="QHExwjSjgpuXHKgZnFAG-99" value="+ moisture level&lt;div style=&quot;font-size: 18px;&quot;&gt;&lt;br style=&quot;font-size: 18px;&quot;&gt;&lt;/div&gt;" style="text;strokeColor=none;fillColor=none;align=left;verticalAlign=top;spacingLeft=4;spacingRight=4;overflow=hidden;rotatable=0;points=[[0,0.5],[1,0.5]];portConstraint=eastwest;whiteSpace=wrap;html=1;fontSize=18;" vertex="1" parent="QHExwjSjgpuXHKgZnFAG-95">
          <mxGeometry y="104" width="160" height="26" as="geometry" />
        </mxCell>
        <mxCell id="QHExwjSjgpuXHKgZnFAG-100" value="&lt;div style=&quot;font-size: 18px;&quot;&gt;+ irrigation status&lt;/div&gt;" style="text;strokeColor=none;fillColor=none;align=left;verticalAlign=top;spacingLeft=4;spacingRight=4;overflow=hidden;rotatable=0;points=[[0,0.5],[1,0.5]];portConstraint=eastwest;whiteSpace=wrap;html=1;fontSize=18;" vertex="1" parent="QHExwjSjgpuXHKgZnFAG-95">
          <mxGeometry y="130" width="160" height="26" as="geometry" />
        </mxCell>
        <mxCell id="QHExwjSjgpuXHKgZnFAG-107" value="has" style="endArrow=open;html=1;endSize=12;startArrow=diamondThin;startSize=14;startFill=0;edgeStyle=orthogonalEdgeStyle;rounded=0;exitX=0.5;exitY=0;exitDx=0;exitDy=0;fontSize=18;" edge="1" parent="1" source="QHExwjSjgpuXHKgZnFAG-13">
          <mxGeometry relative="1" as="geometry">
            <mxPoint x="908" y="381" as="sourcePoint" />
            <mxPoint x="860" y="150" as="targetPoint" />
          </mxGeometry>
        </mxCell>
        <mxCell id="QHExwjSjgpuXHKgZnFAG-108" value="1" style="edgeLabel;resizable=0;html=1;align=left;verticalAlign=top;fontSize=18;" connectable="0" vertex="1" parent="QHExwjSjgpuXHKgZnFAG-107">
          <mxGeometry x="-1" relative="1" as="geometry">
            <mxPoint x="10" y="-30" as="offset" />
          </mxGeometry>
        </mxCell>
        <mxCell id="QHExwjSjgpuXHKgZnFAG-109" value="0..n" style="edgeLabel;resizable=0;html=1;align=right;verticalAlign=top;fontSize=18;" connectable="0" vertex="1" parent="QHExwjSjgpuXHKgZnFAG-107">
          <mxGeometry x="1" relative="1" as="geometry">
            <mxPoint x="40" as="offset" />
          </mxGeometry>
        </mxCell>
        <mxCell id="QHExwjSjgpuXHKgZnFAG-110" value="controls" style="endArrow=open;html=1;endSize=12;startArrow=diamondThin;startSize=14;startFill=0;edgeStyle=orthogonalEdgeStyle;rounded=0;exitX=0.5;exitY=1;exitDx=0;exitDy=0;entryX=0;entryY=0.5;entryDx=0;entryDy=0;fontSize=18;" edge="1" parent="1" source="QHExwjSjgpuXHKgZnFAG-39" target="QHExwjSjgpuXHKgZnFAG-37">
          <mxGeometry relative="1" as="geometry">
            <mxPoint x="290" y="370" as="sourcePoint" />
            <mxPoint x="700" y="560" as="targetPoint" />
            <mxPoint as="offset" />
          </mxGeometry>
        </mxCell>
        <mxCell id="QHExwjSjgpuXHKgZnFAG-111" value="1" style="edgeLabel;resizable=0;html=1;align=left;verticalAlign=top;fontSize=18;" connectable="0" vertex="1" parent="QHExwjSjgpuXHKgZnFAG-110">
          <mxGeometry x="-1" relative="1" as="geometry">
            <mxPoint y="6" as="offset" />
          </mxGeometry>
        </mxCell>
        <mxCell id="QHExwjSjgpuXHKgZnFAG-112" value="1..n" style="edgeLabel;resizable=0;html=1;align=right;verticalAlign=top;fontSize=18;" connectable="0" vertex="1" parent="QHExwjSjgpuXHKgZnFAG-110">
          <mxGeometry x="1" relative="1" as="geometry">
            <mxPoint x="-20" y="-5" as="offset" />
          </mxGeometry>
        </mxCell>
        <mxCell id="QHExwjSjgpuXHKgZnFAG-113" value="operates on" style="endArrow=open;html=1;endSize=12;startArrow=diamondThin;startSize=14;startFill=0;edgeStyle=orthogonalEdgeStyle;rounded=0;exitX=0.5;exitY=1;exitDx=0;exitDy=0;entryX=0.485;entryY=1.025;entryDx=0;entryDy=0;entryPerimeter=0;fontSize=18;" edge="1" parent="1" source="QHExwjSjgpuXHKgZnFAG-35" target="QHExwjSjgpuXHKgZnFAG-100">
          <mxGeometry relative="1" as="geometry">
            <mxPoint x="831" y="381" as="sourcePoint" />
            <mxPoint x="900" y="630" as="targetPoint" />
            <Array as="points">
              <mxPoint x="665" y="680" />
              <mxPoint x="1038" y="680" />
            </Array>
          </mxGeometry>
        </mxCell>
        <mxCell id="QHExwjSjgpuXHKgZnFAG-114" value="1" style="edgeLabel;resizable=0;html=1;align=left;verticalAlign=top;fontSize=18;" connectable="0" vertex="1" parent="QHExwjSjgpuXHKgZnFAG-113">
          <mxGeometry x="-1" relative="1" as="geometry">
            <mxPoint x="2" y="9" as="offset" />
          </mxGeometry>
        </mxCell>
        <mxCell id="QHExwjSjgpuXHKgZnFAG-115" value="0..n" style="edgeLabel;resizable=0;html=1;align=right;verticalAlign=top;fontSize=18;" connectable="0" vertex="1" parent="QHExwjSjgpuXHKgZnFAG-113">
          <mxGeometry x="1" relative="1" as="geometry">
            <mxPoint x="42" y="3" as="offset" />
          </mxGeometry>
        </mxCell>
        <mxCell id="QHExwjSjgpuXHKgZnFAG-119" value="provide data" style="endArrow=open;html=1;endSize=12;startArrow=diamondThin;startSize=14;startFill=0;edgeStyle=orthogonalEdgeStyle;rounded=0;entryX=0;entryY=0.5;entryDx=0;entryDy=0;exitX=0.999;exitY=0.119;exitDx=0;exitDy=0;exitPerimeter=0;fontSize=18;" edge="1" parent="1" source="QHExwjSjgpuXHKgZnFAG-49" target="QHExwjSjgpuXHKgZnFAG-45">
          <mxGeometry relative="1" as="geometry">
            <mxPoint x="230" y="75" as="sourcePoint" />
            <mxPoint x="430" y="84.78" as="targetPoint" />
          </mxGeometry>
        </mxCell>
        <mxCell id="QHExwjSjgpuXHKgZnFAG-120" value="0..n" style="edgeLabel;resizable=0;html=1;align=left;verticalAlign=top;fontSize=18;" connectable="0" vertex="1" parent="QHExwjSjgpuXHKgZnFAG-119">
          <mxGeometry x="-1" relative="1" as="geometry" />
        </mxCell>
        <mxCell id="QHExwjSjgpuXHKgZnFAG-121" value="1" style="edgeLabel;resizable=0;html=1;align=right;verticalAlign=top;fontSize=18;" connectable="0" vertex="1" parent="QHExwjSjgpuXHKgZnFAG-119">
          <mxGeometry x="1" relative="1" as="geometry">
            <mxPoint x="-10" as="offset" />
          </mxGeometry>
        </mxCell>
        <mxCell id="QHExwjSjgpuXHKgZnFAG-123" value="" style="rounded=1;whiteSpace=wrap;html=1;fontSize=18;" vertex="1" parent="1">
          <mxGeometry x="120" y="720" width="680" height="160" as="geometry" />
        </mxCell>
        <mxCell id="QHExwjSjgpuXHKgZnFAG-125" value="&lt;font style=&quot;font-size: 18px;&quot;&gt;Legend&lt;/font&gt;" style="text;html=1;align=center;verticalAlign=middle;whiteSpace=wrap;rounded=0;" vertex="1" parent="1">
          <mxGeometry x="150" y="730" width="60" height="30" as="geometry" />
        </mxCell>
        <mxCell id="QHExwjSjgpuXHKgZnFAG-130" value="&lt;p style=&quot;margin: 4px 0px 0px; text-align: center; font-size: 19px;&quot;&gt;&lt;b style=&quot;font-size: 19px;&quot;&gt;Entity&lt;/b&gt;&lt;/p&gt;&lt;hr style=&quot;border-style: solid; font-size: 19px;&quot;&gt;&lt;div style=&quot;height: 2px; font-size: 19px;&quot;&gt;&lt;/div&gt;" style="verticalAlign=top;align=left;overflow=fill;html=1;whiteSpace=wrap;fontSize=19;" vertex="1" parent="1">
          <mxGeometry x="250" y="770" width="140" height="60" as="geometry" />
        </mxCell>
        <mxCell id="QHExwjSjgpuXHKgZnFAG-131" value="Relation" style="endArrow=open;html=1;endSize=12;startArrow=diamondThin;startSize=14;startFill=0;edgeStyle=orthogonalEdgeStyle;rounded=0;fontSize=19;" edge="1" parent="1">
          <mxGeometry relative="1" as="geometry">
            <mxPoint x="430" y="790" as="sourcePoint" />
            <mxPoint x="590" y="790" as="targetPoint" />
          </mxGeometry>
        </mxCell>
        <mxCell id="QHExwjSjgpuXHKgZnFAG-132" value="0..n" style="edgeLabel;resizable=0;html=1;align=left;verticalAlign=top;fontSize=18;" connectable="0" vertex="1" parent="QHExwjSjgpuXHKgZnFAG-131">
          <mxGeometry x="-1" relative="1" as="geometry" />
        </mxCell>
        <mxCell id="QHExwjSjgpuXHKgZnFAG-133" value="1" style="edgeLabel;resizable=0;html=1;align=right;verticalAlign=top;fontSize=18;" connectable="0" vertex="1" parent="QHExwjSjgpuXHKgZnFAG-131">
          <mxGeometry x="1" relative="1" as="geometry">
            <mxPoint x="-10" as="offset" />
          </mxGeometry>
        </mxCell>
        <mxCell id="QHExwjSjgpuXHKgZnFAG-134" value="&lt;div&gt;&lt;span style=&quot;font-size: 18px; background-color: initial;&quot;&gt;&lt;b&gt;Relationship types:&lt;/b&gt;&lt;/span&gt;&lt;/div&gt;&lt;div&gt;&lt;span style=&quot;font-size: 18px; background-color: initial;&quot;&gt;1: exactly one&lt;/span&gt;&lt;br&gt;&lt;/div&gt;&lt;div&gt;&lt;font style=&quot;font-size: 18px;&quot;&gt;0..n: zero or more&lt;/font&gt;&lt;/div&gt;&lt;div&gt;&lt;font style=&quot;font-size: 18px;&quot;&gt;1..n: one or more&lt;/font&gt;&lt;/div&gt;&lt;div&gt;&lt;font style=&quot;font-size: 18px;&quot;&gt;&lt;br&gt;&lt;/font&gt;&lt;/div&gt;" style="text;html=1;align=center;verticalAlign=middle;whiteSpace=wrap;rounded=0;" vertex="1" parent="1">
          <mxGeometry x="560" y="750" width="290" height="100" as="geometry" />
        </mxCell>
      </root>
    </mxGraphModel>
  </diagram>
</mxfile>
